<svg xmlns="http://www.w3.org/2000/svg" width="321" height="225" viewBox="0 0 321 225" version="1.1"><path d="M 110.918 17.322 C 109.498 19.070, 89.698 42.332, 66.918 69.016 C 44.138 95.699, 24.894 118.298, 24.153 119.235 C 22.997 120.697, 23.116 121.333, 24.994 123.719 C 26.197 125.249, 27.390 126.357, 27.646 126.181 C 28.501 125.595, 78.904 166.762, 78.197 167.470 C 77.814 167.853, 78.010 168.017, 78.632 167.833 C 79.887 167.464, 97 180.807, 97 182.153 C 97 182.619, 97.671 183, 98.492 183 C 99.312 183, 100.545 183.900, 101.232 185 C 101.919 186.100, 102.858 187, 103.319 187 C 103.780 187, 107.609 189.775, 111.829 193.167 C 119.202 199.095, 120.787 200.437, 125.750 204.953 C 126.987 206.079, 128.278 207, 128.618 207 C 128.958 207, 130.774 208.350, 132.653 210 C 134.532 211.650, 136.391 212.972, 136.785 212.939 C 137.710 212.859, 177.887 165.500, 178.476 163.794 C 178.735 163.045, 175.308 159.821, 170.345 156.144 C 162.044 149.993, 161.711 149.848, 160.018 151.644 C 159.055 152.665, 153.200 159.575, 147.006 167 C 140.812 174.425, 135.421 180.627, 135.025 180.783 C 134.182 181.113, 58.432 118.248, 58.641 117.392 C 58.719 117.074, 65.746 108.644, 74.258 98.657 C 82.770 88.671, 95.364 73.883, 102.246 65.795 C 109.127 57.707, 115.109 51.407, 115.539 51.795 C 115.969 52.183, 116.034 51.998, 115.684 51.384 C 115.334 50.770, 115.865 49.527, 116.864 48.623 C 118.578 47.072, 120.019 47.897, 142.091 63.072 C 154.966 71.923, 165.650 79.578, 165.833 80.083 C 166.017 80.587, 166.782 81, 167.534 81 C 168.285 81, 169.359 81.787, 169.920 82.750 C 170.481 83.712, 170.953 84.132, 170.970 83.682 C 170.986 83.232, 172.238 83.721, 173.750 84.768 C 175.262 85.815, 177.023 86.973, 177.663 87.341 C 178.609 87.886, 186.201 78.287, 190.320 71.338 C 190.755 70.606, 183.884 64.912, 171.755 55.953 C 161.165 48.130, 152 41.116, 151.390 40.365 C 150.779 39.614, 149.855 39, 149.335 39 C 148.816 39, 146.728 37.477, 144.695 35.615 C 142.663 33.753, 141 32.394, 141 32.594 C 141 32.794, 135.262 28.701, 128.250 23.498 C 121.237 18.295, 115.050 14.062, 114.500 14.091 C 113.950 14.121, 112.338 15.574, 110.918 17.322 M 225.725 59.255 C 223.855 61.590, 220.738 65.623, 218.797 68.218 C 216.857 70.813, 214.983 72.725, 214.634 72.468 C 214.285 72.210, 214.208 72.283, 214.462 72.628 C 214.715 72.974, 209.315 80.597, 202.462 89.570 C 195.608 98.542, 190 106.048, 190 106.249 C 190 106.758, 202.653 116, 203.350 116 C 203.662 116, 210.189 108.128, 217.855 98.506 L 231.792 81.012 253.646 97.625 C 265.666 106.763, 276.107 114.808, 276.848 115.503 C 277.962 116.548, 275.210 120.740, 261.006 139.634 C 251.552 152.210, 243.396 162.384, 242.883 162.242 C 242.369 162.099, 215.770 143.024, 183.773 119.852 L 125.596 77.722 121.265 82.611 C 118.883 85.300, 116.062 88.676, 114.996 90.114 L 113.057 92.729 122.529 99.443 C 127.738 103.135, 132 106.571, 132 107.078 C 132 107.585, 132.395 107.887, 132.878 107.750 C 133.912 107.456, 190.897 147.538, 192.793 149.894 C 193.504 150.777, 194.475 151.500, 194.950 151.500 C 195.425 151.500, 207.151 159.539, 221.006 169.365 C 242.254 184.433, 246.410 187.017, 247.552 185.865 C 248.296 185.114, 261.048 168.075, 275.890 148 L 302.874 111.500 300.687 109.389 C 299.484 108.228, 282.891 95.518, 263.813 81.145 L 229.125 55.011 225.725 59.255" stroke="none" fill="#900607" fill-rule="evenodd"/><path d="M 110.918 17.322 C 109.498 19.070, 89.698 42.332, 66.918 69.016 C 44.138 95.699, 24.894 118.298, 24.153 119.235 C 22.997 120.697, 23.116 121.333, 24.994 123.719 C 26.197 125.249, 27.390 126.357, 27.646 126.181 C 28.501 125.595, 78.904 166.762, 78.197 167.470 C 77.814 167.853, 78.010 168.017, 78.632 167.833 C 79.887 167.464, 97 180.807, 97 182.153 C 97 182.619, 97.671 183, 98.492 183 C 99.312 183, 100.545 183.900, 101.232 185 C 101.919 186.100, 102.858 187, 103.319 187 C 103.780 187, 107.609 189.775, 111.829 193.167 C 119.202 199.095, 120.787 200.437, 125.750 204.953 C 126.987 206.079, 128.278 207, 128.618 207 C 128.958 207, 130.774 208.350, 132.653 210 C 134.532 211.650, 136.391 212.972, 136.785 212.939 C 137.710 212.859, 177.887 165.500, 178.476 163.794 C 178.735 163.045, 175.308 159.821, 170.345 156.144 C 162.044 149.993, 161.711 149.848, 160.018 151.644 C 159.055 152.665, 153.200 159.575, 147.006 167 C 140.812 174.425, 135.421 180.627, 135.025 180.783 C 134.182 181.113, 58.432 118.248, 58.641 117.392 C 58.719 117.074, 65.746 108.644, 74.258 98.657 C 82.770 88.671, 95.364 73.883, 102.246 65.795 C 109.127 57.707, 115.109 51.407, 115.539 51.795 C 115.969 52.183, 116.034 51.998, 115.684 51.384 C 115.334 50.770, 115.865 49.527, 116.864 48.623 C 118.578 47.072, 120.019 47.897, 142.091 63.072 C 154.966 71.923, 165.650 79.578, 165.833 80.083 C 166.017 80.587, 166.782 81, 167.534 81 C 168.285 81, 169.359 81.787, 169.920 82.750 C 170.481 83.712, 170.953 84.132, 170.970 83.682 C 170.986 83.232, 172.238 83.721, 173.750 84.768 C 175.262 85.815, 177.023 86.973, 177.663 87.341 C 178.609 87.886, 186.201 78.287, 190.320 71.338 C 190.755 70.606, 183.884 64.912, 171.755 55.953 C 161.165 48.130, 152 41.116, 151.390 40.365 C 150.779 39.614, 149.855 39, 149.335 39 C 148.816 39, 146.728 37.477, 144.695 35.615 C 142.663 33.753, 141 32.394, 141 32.594 C 141 32.794, 135.262 28.701, 128.250 23.498 C 121.237 18.295, 115.050 14.062, 114.500 14.091 C 113.950 14.121, 112.338 15.574, 110.918 17.322 M 225.725 59.255 C 223.855 61.590, 220.738 65.623, 218.797 68.218 C 216.857 70.813, 214.983 72.725, 214.634 72.468 C 214.285 72.210, 214.208 72.283, 214.462 72.628 C 214.715 72.974, 209.315 80.597, 202.462 89.570 C 195.608 98.542, 190 106.048, 190 106.249 C 190 106.758, 202.653 116, 203.350 116 C 203.662 116, 210.189 108.128, 217.855 98.506 L 231.792 81.012 253.646 97.625 C 265.666 106.763, 276.107 114.808, 276.848 115.503 C 277.962 116.548, 275.210 120.740, 261.006 139.634 C 251.552 152.210, 243.396 162.384, 242.883 162.242 C 242.369 162.099, 215.770 143.024, 183.773 119.852 L 125.596 77.722 121.265 82.611 C 118.883 85.300, 116.062 88.676, 114.996 90.114 L 113.057 92.729 122.529 99.443 C 127.738 103.135, 132 106.571, 132 107.078 C 132 107.585, 132.395 107.887, 132.878 107.750 C 133.912 107.456, 190.897 147.538, 192.793 149.894 C 193.504 150.777, 194.475 151.500, 194.950 151.500 C 195.425 151.500, 207.151 159.539, 221.006 169.365 C 242.254 184.433, 246.410 187.017, 247.552 185.865 C 248.296 185.114, 261.048 168.075, 275.890 148 L 302.874 111.500 300.687 109.389 C 299.484 108.228, 282.891 95.518, 263.813 81.145 L 229.125 55.011 225.725 59.255" stroke="none" fill="#900607" fill-rule="evenodd"/></svg>